<?xml version="1.0" encoding="UTF-8" standalone="no"?>
<svg
   width="512"
   height="512"
   viewBox="0 0 135.46666 135.46667"
   version="1.1"
   id="svg1"
   xmlns="http://www.w3.org/2000/svg"
   xmlns:svg="http://www.w3.org/2000/svg">
  <style>
    @media (prefers-color-scheme: dark) {
    .a { fill: #f0f0f0 }
    }
  </style>
  <defs
     id="defs1" />
  <g
     id="layer1"
     transform="translate(12.428423,18.968975)">
    <path
            class="a" fill="#0f0f0f"
       d="M -0.65343373,0.06733169 V 86.525632 H 58.828687 67.241273 71.216064 V 102.22388 H 86.669712 V 90.605255 h -0.0088 V 70.591513 c -0.559959,0.02729 -1.136788,0.04359 -1.72969,0.04359 H 67.241273 V 56.465712 33.097424 13.887379 h 15.969058 c 4.635666,0 8.237847,0.852795 10.779988,2.559592 2.542157,1.649933 3.808811,4.321387 3.808811,8.019473 0,3.698111 -1.266656,6.369555 -3.808811,8.019474 -2.542158,1.593017 -6.144316,2.384874 -10.779988,2.384874 H 69.477638 v 13.400731 h 15.453646 c 4.984587,0 8.802076,0.944193 11.443912,2.821666 2.64181,1.820646 3.974794,4.583432 3.974794,8.281548 0,3.754985 -1.352972,6.56129 -4.04468,8.438791 -1.882776,1.338065 -4.358753,2.488531 -7.407967,2.873568 v 15.661079 c 5.435116,-0.377595 10.293747,-2.353816 14.055917,-4.435051 4.079,-2.355563 7.75581,-5.273575 10.09856,-8.971677 2.34275,-3.754984 3.50306,-8.201667 3.50306,-13.322107 0,-6.030753 -1.79235,-11.003825 -5.38125,-14.9295 -2.22961,-2.438849 -5.013,-4.315667 -8.37761,-5.634594 0.83832,-0.44205 1.64018,-0.921369 2.40233,-1.450145 2.54213,-1.76369 4.52974,-3.960947 5.97528,-6.578063 1.44554,-2.674001 2.17521,-5.706556 2.17521,-9.120187 0,-7.282414 -2.51331,-12.7471728 -7.54773,-16.3883728 C 100.76669,1.8772861 94.056665,0.06733169 85.682564,0.06733169 H 67.241273 50.398633 V 70.635194 H 16.171732 V 0.06733169 Z"
       style="font-size:11.6101px;font-family:Geologica;-inkscape-font-specification:Geologica;fill:#ffffff;stroke-width:1.78909;stroke-linejoin:round"
       id="path18" />
  </g>
</svg>
