<?xml version="1.0" standalone="no"?>
<!DOCTYPE svg PUBLIC "-//W3C//DTD SVG 20010904//EN"
 "http://www.w3.org/TR/2001/REC-SVG-20010904/DTD/svg10.dtd">
<svg version="1.0" xmlns="http://www.w3.org/2000/svg"
 width="700.000000pt" height="700.000000pt" viewBox="0 0 700.000000 700.000000"
 preserveAspectRatio="xMidYMid meet">
<metadata>
Created by potrace 1.14, written by Peter Selinger 2001-2017
</metadata>
<g transform="translate(0.000000,700.000000) scale(0.100000,-0.100000)"
fill="#000000" stroke="none">
<path d="M610 3783 l0 -2233 1855 0 c1760 0 1855 -1 1856 -17 0 -10 1 -192 1
-405 1 -349 2 -388 17 -389 20 -1 774 -1 781 0 3 1 4 115 3 254 -1 138 -2 505
-3 815 l0 562 -499 0 c-390 0 -500 3 -503 12 -3 11 -2 2857 1 2908 1 13 55 15
427 14 403 -2 570 -7 639 -20 266 -49 420 -156 480 -330 32 -94 38 -246 15
-347 -16 -65 -59 -152 -97 -193 -88 -98 -270 -170 -481 -189 -39 -4 -252 -7
-471 -7 l-399 -1 0 -346 0 -346 441 -1 c433 0 583 -6 646 -24 17 -5 31 -7 31
-5 0 6 133 -41 189 -67 28 -12 51 -26 51 -30 0 -5 7 -8 15 -8 19 0 116 -95
146 -145 26 -42 57 -117 64 -157 30 -164 -1 -341 -79 -455 -78 -114 -283 -230
-456 -259 -14 -3 -30 -6 -35 -8 -6 -2 -10 -145 -10 -402 l1 -399 34 0 c46 1
150 14 160 20 4 3 25 7 46 11 127 20 422 146 575 246 384 252 558 520 605 933
59 528 -161 962 -600 1180 l-96 48 57 35 c238 146 388 345 452 597 20 79 22
102 26 235 11 461 -170 771 -570 973 -77 40 -215 92 -265 102 -8 2 -33 8 -55
13 -48 13 -196 38 -280 48 -33 4 -513 8 -1067 8 l-1006 2 -4 -21 c-2 -11 -3
-831 -2 -1823 l0 -1802 -884 2 -885 3 0 1818 c1 1339 -2 1817 -11 1818 -6 1
-201 2 -433 3 l-423 2 0 -2233z"/>
</g>
</svg>
