<?xml version="1.0" standalone="no"?>
<!DOCTYPE svg PUBLIC "-//W3C//DTD SVG 20010904//EN"
 "http://www.w3.org/TR/2001/REC-SVG-20010904/DTD/svg10.dtd">
<svg version="1.0" xmlns="http://www.w3.org/2000/svg"
 width="500.000000pt" height="500.000000pt" viewBox="0 0 500.000000 500.000000"
 preserveAspectRatio="xMidYMid meet">
<metadata>
Created by potrace 1.14, written by Peter Selinger 2001-2017
</metadata>
<g transform="translate(0.000000,500.000000) scale(0.100000,-0.100000)"
fill="#000000" stroke="none">
<path d="M1390 3772 c-164 -55 -247 -152 -303 -351 -21 -74 -21 -97 -25 -776
-4 -731 0 -815 39 -956 54 -195 153 -301 313 -335 113 -24 256 -10 343 34 43
22 123 103 146 148 59 114 86 276 94 567 l6 227 -145 0 -145 0 -6 -262 c-5
-268 -14 -335 -51 -406 -51 -99 -200 -96 -259 5 -42 73 -46 148 -47 895 0 761
3 811 52 898 40 69 127 98 204 65 27 -11 40 -26 59 -67 35 -76 45 -164 45
-395 l0 -203 140 0 140 0 0 193 c0 444 -63 611 -266 704 -78 35 -250 43 -334
15z"/>
<path d="M2290 3310 l75 -450 133 0 133 0 -5 33 c-11 62 -36 224 -81 517 -25
162 -48 307 -51 323 l-6 27 -136 0 -137 0 75 -450z"/>
<path d="M3035 3748 c-2 -7 -25 -168 -50 -358 -25 -190 -51 -387 -58 -437
l-13 -93 128 0 c124 0 128 1 133 23 3 12 32 204 65 427 33 223 63 415 65 428
5 22 5 22 -130 22 -100 0 -137 -3 -140 -12z"/>
<path d="M2588 2742 c-15 -3 -18 -14 -18 -63 l0 -59 -80 0 -80 0 0 60 c0 53
-2 60 -20 60 -19 0 -20 -7 -20 -140 0 -133 1 -140 20 -140 18 0 20 7 20 70 l0
70 80 0 80 0 0 -70 c0 -63 2 -70 20 -70 12 0 20 7 21 18 2 70 0 264 -3 266 -2
1 -11 1 -20 -2z"/>
<path d="M3326 2742 c-7 -6 -8 -276 -2 -283 2 -2 45 -3 95 -1 71 3 91 7 91 18
0 11 -16 14 -70 14 l-70 0 0 124 c0 114 -2 124 -19 129 -11 3 -22 2 -25 -1z"/>
<path d="M3666 2727 c-123 -70 -87 -255 55 -274 88 -12 169 50 176 135 11 119
-124 201 -231 139z m150 -41 c29 -29 34 -41 34 -81 0 -80 -41 -125 -114 -125
-35 0 -54 12 -80 50 -32 48 -13 153 31 179 10 6 35 11 57 11 30 0 45 -7 72
-34z"/>
<path d="M1680 2601 c0 -117 2 -141 15 -141 11 0 15 20 17 103 l3 102 52 -102
c29 -56 57 -104 62 -107 5 -4 36 41 68 99 l58 106 3 -101 c3 -99 3 -100 27
-100 l25 0 0 140 c0 132 -1 140 -19 140 -15 0 -33 -24 -67 -87 -26 -49 -55
-101 -64 -116 l-17 -29 -60 114 c-45 84 -66 114 -82 116 -21 3 -21 1 -21 -137z"/>
<path d="M2163 2600 l0 -140 23 0 24 0 0 140 0 140 -24 0 -23 0 0 -140z"/>
<path d="M2830 2714 c-6 -14 -30 -72 -55 -130 -48 -112 -51 -124 -35 -124 6 0
17 18 26 40 l16 40 68 0 67 0 18 -40 c14 -30 24 -40 41 -40 23 0 23 0 -12 78
-20 42 -49 105 -65 140 -30 67 -53 79 -69 36z m46 -89 c13 -31 24 -58 24 -60
0 -3 -22 -5 -50 -5 -27 0 -50 4 -50 9 0 12 42 111 47 111 2 0 15 -25 29 -55z"/>
<path d="M3120 2600 c0 -133 1 -140 20 -140 19 0 20 7 20 140 0 133 -1 140
-20 140 -19 0 -20 -7 -20 -140z"/>
<path d="M2455 2308 c7 -29 155 -917 155 -929 0 -5 77 -9 170 -9 137 0 170 3
170 14 0 7 32 221 70 475 39 253 70 463 70 466 0 3 -55 5 -123 5 l-123 0 -22
-162 c-12 -90 -25 -189 -28 -221 -4 -32 -9 -56 -11 -53 -2 2 -17 91 -34 197
-16 107 -31 204 -34 217 -5 21 -9 22 -135 22 -130 0 -130 0 -125 -22z"/>
<path d="M3617 1643 c-4 -3 -7 -66 -7 -140 l0 -133 125 0 125 0 0 140 0 140
-118 0 c-65 0 -122 -3 -125 -7z"/>
</g>
</svg>
